<svg class="theme-arco-icon theme-arco-icon-shoppingcenter_unselect index__icon--K9Hiq" width="1em" height="1em"
     viewBox="0 0 16 16" fill="none" xmlns="http://www.w3.org/2000/svg"
     style="stroke: unset; color: rgb(var(--theme-arco-primary-6));">
    <path d="M5.83084 4.09093C5.83084 2.95363 6.78432 2.00002 8.00008 2.00002C9.21584 2.00002 10.1693 2.95363 10.1693 4.09093C10.1693 4.41672 10.0924 4.72483 9.95422 5.00002H6.04593C5.90777 4.72483 5.83084 4.41672 5.83084 4.09093ZM11.5026 4.09093C11.5026 2.18229 9.91677 0.666687 8.00008 0.666687C6.08339 0.666687 4.49751 2.18229 4.49751 4.09093C4.49751 4.40565 4.54107 4.71054 4.62244 5.00002H2.8104C1.9615 5.00002 1.25815 5.71567 1.3397 6.58795L2.00264 13.6789C2.07402 14.4424 2.72544 15 3.47334 15H12.5268C13.2747 15 13.9261 14.4424 13.9975 13.6789L14.6605 6.58795C14.742 5.71567 14.0387 5.00002 13.1898 5.00002H11.3777C11.4591 4.71054 11.5026 4.40565 11.5026 4.09093ZM2.66724 6.46384C2.66252 6.41333 2.70639 6.33335 2.8104 6.33335H13.1898C13.2938 6.33335 13.3376 6.41333 13.3329 6.46384L12.67 13.5547C12.6655 13.6029 12.617 13.6667 12.5268 13.6667H3.47334C3.38311 13.6667 3.33468 13.6029 3.33018 13.5547L2.66724 6.46384Z"
          fill="#000"></path>
    <path d="M6.66679 8.50006C6.66679 9.14439 6.14445 9.66673 5.50012 9.66673 4.85579 9.66673 4.33346 9.14439 4.33346 8.50006 4.33346 7.85573 4.85579 7.33339 5.50012 7.33339 6.14445 7.33339 6.66679 7.85573 6.66679 8.50006zM11.6668 8.50006C11.6668 9.14439 11.1445 9.66673 10.5001 9.66673 9.85579 9.66673 9.33346 9.14439 9.33346 8.50006 9.33346 7.85573 9.85579 7.33339 10.5001 7.33339 11.1445 7.33339 11.6668 7.85573 11.6668 8.50006z"
          fill="#127FFF"></path>
</svg>