<svg width="30" height="30" viewBox="0 0 32 32" fill="none" xmlns="http://www.w3.org/2000/svg">
<path d="M26.8287 23.8625C26.2392 22.4662 25.3837 21.1978 24.3099 20.1281C23.2394 19.0553 21.9713 18.2 20.5756 17.6094C20.5631 17.6031 20.5506 17.6 20.5381 17.5938C22.4849 16.1875 23.7506 13.8969 23.7506 11.3125C23.7506 7.03125 20.2818 3.5625 16.0006 3.5625C11.7193 3.5625 8.25057 7.03125 8.25057 11.3125C8.25057 13.8969 9.51619 16.1875 11.4631 17.5969C11.4506 17.6031 11.4381 17.6062 11.4256 17.6125C10.0256 18.2031 8.76932 19.05 7.69119 20.1313C6.61841 21.2018 5.76308 22.4699 5.17244 23.8656C4.5922 25.232 4.27926 26.697 4.25057 28.1812C4.24973 28.2146 4.25558 28.2478 4.26777 28.2788C4.27996 28.3099 4.29824 28.3382 4.32154 28.3621C4.34484 28.386 4.37268 28.4049 4.40343 28.4179C4.43418 28.4308 4.4672 28.4375 4.50057 28.4375H6.37557C6.51307 28.4375 6.62244 28.3281 6.62557 28.1938C6.68807 25.7812 7.65682 23.5219 9.36932 21.8094C11.1412 20.0375 13.4943 19.0625 16.0006 19.0625C18.5068 19.0625 20.8599 20.0375 22.6318 21.8094C24.3443 23.5219 25.3131 25.7812 25.3756 28.1938C25.3787 28.3313 25.4881 28.4375 25.6256 28.4375H27.5006C27.5339 28.4375 27.567 28.4308 27.5977 28.4179C27.6285 28.4049 27.6563 28.386 27.6796 28.3621C27.7029 28.3382 27.7212 28.3099 27.7334 28.2788C27.7456 28.2478 27.7514 28.2146 27.7506 28.1812C27.7193 26.6875 27.4099 25.2344 26.8287 23.8625ZM16.0006 16.6875C14.5662 16.6875 13.2162 16.1281 12.2006 15.1125C11.1849 14.0969 10.6256 12.7469 10.6256 11.3125C10.6256 9.87813 11.1849 8.52812 12.2006 7.5125C13.2162 6.49687 14.5662 5.9375 16.0006 5.9375C17.4349 5.9375 18.7849 6.49687 19.8006 7.5125C20.8162 8.52812 21.3756 9.87813 21.3756 11.3125C21.3756 12.7469 20.8162 14.0969 19.8006 15.1125C18.7849 16.1281 17.4349 16.6875 16.0006 16.6875Z" fill="#2DA5F3"/>
</svg>
